<?xml version="1.0" standalone="no"?>
<!DOCTYPE svg PUBLIC "-//W3C//DTD SVG 20010904//EN"
 "http://www.w3.org/TR/2001/REC-SVG-20010904/DTD/svg10.dtd">
<svg version="1.0" xmlns="http://www.w3.org/2000/svg"
 width="700.000000pt" height="700.000000pt" viewBox="0 0 700.000000 700.000000"
 preserveAspectRatio="xMidYMid meet">
<metadata>
Created by potrace 1.11, written by Peter Selinger 2001-2013
</metadata>
<g transform="translate(0.000000,700.000000) scale(0.100000,-0.100000)"
fill="#000000" stroke="none">
<path d="M3133 6781 c-72 -25 -122 -61 -213 -157 -141 -150 -296 -373 -340
-492 -23 -61 -37 -189 -26 -245 4 -20 18 -50 33 -67 62 -74 165 -97 500 -110
136 -6 248 -11 249 -13 4 -3 24 -326 24 -379 l0 -47 -182 89 c-269 131 -365
157 -503 140 -173 -22 -346 -119 -541 -303 -153 -145 -242 -271 -230 -330 20
-101 105 -69 309 119 184 169 256 229 314 265 52 31 65 34 149 37 77 3 99 0
142 -18 83 -36 212 -188 212 -251 0 -24 -7 -30 -55 -48 -30 -11 -107 -35 -171
-52 -182 -48 -303 -98 -449 -184 -374 -220 -672 -570 -790 -930 -158 -481
-218 -1317 -139 -1965 60 -500 209 -837 498 -1125 335 -334 752 -492 1386
-525 107 -6 249 -13 315 -16 184 -10 312 7 474 62 489 167 788 335 1054 593
174 168 282 316 378 515 116 243 144 401 136 781 -10 474 -89 931 -216 1249
-229 574 -500 1032 -772 1304 -135 137 -272 228 -592 394 -209 108 -324 178
-333 203 -26 67 261 290 399 310 84 13 234 -43 326 -122 53 -45 95 -133 127
-268 39 -166 70 -215 134 -215 89 0 211 132 210 227 -1 97 -148 311 -272 397
-186 128 -585 151 -879 51 -107 -37 -185 -56 -202 -49 -9 3 -16 25 -20 64 -7
78 -45 147 -123 220 -91 85 -111 88 -388 60 -120 -12 -221 -19 -224 -16 -3 4
3 43 12 89 27 125 91 245 249 466 75 104 137 223 137 261 0 19 -7 33 -19 40
-25 13 -26 13 -88 -9z m753 -1826 c199 -67 436 -225 609 -407 146 -153 328
-388 434 -561 50 -82 154 -287 145 -287 -4 0 -49 7 -101 16 -228 39 -323 2
-443 -172 -129 -186 -172 -382 -112 -501 23 -44 48 -64 105 -82 84 -28 113 8
127 159 6 73 15 115 35 157 81 179 175 249 259 194 70 -47 146 -179 167 -293
16 -85 2 -193 -35 -273 -38 -83 -106 -163 -274 -323 -153 -145 -200 -208 -186
-248 12 -34 54 -84 84 -99 44 -23 104 -19 163 11 65 33 102 62 247 190 177
158 253 211 279 195 24 -16 32 -139 21 -346 -22 -419 -70 -645 -187 -880 -111
-222 -280 -396 -573 -588 -135 -88 -331 -193 -444 -236 -172 -66 -406 -99
-761 -108 -438 -11 -661 30 -950 172 -155 77 -271 162 -387 284 -362 380 -529
990 -497 1817 28 724 210 1255 551 1610 155 160 331 279 540 362 155 61 225
68 552 53 364 -17 602 -19 616 -5 8 8 -3 29 -39 75 -62 77 -76 103 -68 123 9
22 37 20 123 -9z"/>
<path d="M3382 4090 c-76 -18 -150 -90 -173 -167 -16 -57 8 -125 54 -151 39
-21 226 -23 296 -3 63 18 101 59 101 110 0 54 -12 82 -56 131 -61 68 -147 99
-222 80z"/>
<path d="M2605 4043 c-67 -13 -105 -51 -105 -105 0 -36 44 -120 82 -156 60
-57 132 -66 215 -28 69 33 90 64 74 115 -30 101 -170 192 -266 174z"/>
<path d="M3385 3616 c-66 -69 -111 -161 -126 -256 -12 -80 -8 -348 12 -690 12
-207 28 -319 55 -376 25 -55 185 -214 215 -214 29 0 145 116 155 157 4 15 -2
145 -15 288 -65 766 -108 1032 -177 1115 -37 43 -60 38 -119 -24z"/>
<path d="M2663 3518 c-30 -14 -60 -79 -79 -169 -43 -208 -19 -898 36 -1045 16
-43 59 -83 96 -90 61 -11 134 50 181 151 26 58 27 68 31 251 5 218 -11 547
-34 685 -19 117 -51 192 -93 213 -34 18 -105 20 -138 4z"/>
<path d="M4833 3220 c-54 -33 -89 -123 -71 -186 11 -43 77 -94 121 -94 39 0
94 34 112 70 33 64 2 174 -59 211 -39 24 -63 24 -103 -1z"/>
<path d="M4810 2840 c-13 -18 -24 -53 -27 -84 -5 -48 -3 -55 16 -66 16 -8 31
-8 56 0 58 19 89 94 60 149 -13 25 -22 31 -50 31 -26 0 -38 -7 -55 -30z"/>
<path d="M3070 2140 c-85 -45 -220 -194 -220 -242 0 -51 112 -188 184 -225 43
-22 108 -19 150 6 49 31 101 92 117 137 31 92 4 211 -64 282 -61 64 -106 75
-167 42z"/>
<path d="M2735 1600 c-203 -14 -222 -24 -217 -123 5 -124 77 -389 139 -512 43
-84 123 -193 184 -249 165 -153 382 -164 759 -40 236 78 406 217 497 404 33
70 35 153 9 373 l-20 157 -620 -2 c-342 0 -670 -4 -731 -8z m1008 -282 c51
-34 58 -133 15 -224 -71 -153 -212 -208 -533 -209 -195 0 -226 7 -291 67 -53
49 -87 105 -109 181 -17 60 -14 128 8 156 32 39 156 49 577 47 273 -1 309 -3
333 -18z"/>
</g>
</svg>
